<svg width="31" height="44" viewBox="0 0 31 44" fill="none" xmlns="http://www.w3.org/2000/svg">
<path d="M15.5 15.3333H22.3365C26.0167 15.3333 29 12.3486 29 8.66665C29 4.98476 26.0167 2 22.3365 2H15.5M15.5 15.3333V2M15.5 15.3333H8.66346C4.98333 15.3333 2 12.3486 2 8.66665C2 4.98476 4.98333 2 8.66346 2H15.5M2 22.0002C2 25.6821 4.98333 28.6668 8.66346 28.6668H15.5V15.3335H8.66346C4.98333 15.3335 2 18.3183 2 22.0002ZM2 35.3333C2 39.0152 5.02632 42 8.70645 42C12.4344 42 15.5 38.9764 15.5 35.2468V28.6667H8.66346C4.98333 28.6667 2 31.6514 2 35.3333ZM15.5 22.0002C15.5 25.6821 18.4833 28.6668 22.1635 28.6668H22.3365C26.0167 28.6668 29 25.6821 29 22.0002C29 18.3183 26.0167 15.3335 22.3365 15.3335H22.1635C18.4833 15.3335 15.5 18.3183 15.5 22.0002Z" stroke="white" stroke-width="3"/>
</svg>
