<?xml version="1.0" encoding="utf-8"?>
<!-- Generator: Adobe Illustrator 26.5.2, SVG Export Plug-In . SVG Version: 6.00 Build 0)  -->
<svg version="1.1" id="Layer_1" xmlns="http://www.w3.org/2000/svg" xmlns:xlink="http://www.w3.org/1999/xlink" x="0px" y="0px"
	 viewBox="0 0 31 44" style="enable-background:new 0 0 31 44;" xml:space="preserve">
<style type="text/css">
	.st0{fill:none;stroke:#000000;stroke-width:3;}
</style>
<path class="st0" d="M15.5,15.3h6.8c3.7,0,6.7-3,6.7-6.7C29,5,26,2,22.3,2h-6.8 M15.5,15.3V2 M15.5,15.3H8.7C5,15.3,2,12.3,2,8.7
	C2,5,5,2,8.7,2h6.8 M2,22c0,3.7,3,6.7,6.7,6.7h6.8V15.3H8.7C5,15.3,2,18.3,2,22z M2,35.3C2,39,5,42,8.7,42c3.7,0,6.8-3,6.8-6.8v-6.6
	H8.7C5,28.7,2,31.7,2,35.3z M15.5,22c0,3.7,3,6.7,6.7,6.7h0.2c3.7,0,6.7-3,6.7-6.7s-3-6.7-6.7-6.7h-0.2C18.5,15.3,15.5,18.3,15.5,22
	z"/>
</svg>
