<svg width="865" height="220" viewBox="0 0 865 220" fill="none" xmlns="http://www.w3.org/2000/svg">
<path d="M33.8251 1.46014V23.0372C33.8251 23.0372 42.4841 18.0291 49.6158 18.0291H76.1786L5.73962 199.011H156.934V177.144C156.934 177.144 150.514 182.21 139.869 182.21H32.8655L102.755 1.46014H33.8251Z" fill="url(#paint0_linear_2202_719)"/>
<path d="M110.864 164.065C115.158 159.725 114.766 149.29 114.766 149.29V15.7989C114.766 5.52894 111.053 1.46014 111.053 1.46014H154.903V24.159C149.753 18.1004 137.837 18.7637 137.837 18.7637H132.377V30.605H166.972V53.3173C161.332 47.775 152.118 48.1667 152.118 48.1667H132.377V146.668H143.117C152.51 146.668 156.934 141.482 156.934 141.482V164.065H110.869" fill="url(#paint1_linear_2202_719)"/>
<path d="M236.803 7.29179C231.59 2.72441 224.305 1.46014 222.562 1.46014H170.581C170.581 1.46014 174.383 6.24566 174.383 13.5864V185.322C174.383 185.322 174.703 194.452 170.594 199.011H195.679C195.679 199.011 191.967 194.603 191.967 185.273V45.1841H222.931C222.931 45.1841 230.608 45.8118 236.816 38.0571C242.204 31.3306 242.159 26.6342 242.159 23.5714C242.159 20.5087 242.011 11.8592 236.798 7.29179H236.803ZM226.522 28.2635C225.981 29.3319 224.359 29.7281 224.359 29.7281H191.971V18.7904H223.305C226.256 18.7904 227.536 21.0429 227.536 22.9616C227.536 24.8802 227.067 27.1906 226.526 28.259L226.522 28.2635Z" fill="url(#paint2_linear_2202_719)"/>
<path d="M317.077 7.29179C311.864 2.72441 304.579 1.46014 302.836 1.46014H250.854C250.854 1.46014 254.657 6.24566 254.657 13.5864V185.322C254.657 185.322 254.977 194.452 250.868 199.011H275.953C275.953 199.011 272.241 194.603 272.241 185.273V45.1841H303.205C303.205 45.1841 310.882 45.8118 317.09 38.0571C322.478 31.3306 322.433 26.6342 322.433 23.5714C322.433 20.5087 322.285 11.8592 317.072 7.29179H317.077ZM306.796 28.2635C306.255 29.3319 304.633 29.7281 304.633 29.7281H272.245V18.7904H303.579C306.53 18.7904 307.809 21.0429 307.809 22.9616C307.809 24.8802 307.341 27.1906 306.8 28.259L306.796 28.2635Z" fill="url(#paint3_linear_2202_719)"/>
<path d="M716.666 1.47351C716.666 1.47351 720.423 5.27521 720.423 13.7778C720.423 22.2805 720.018 184.142 720.018 184.142C720.018 184.142 719.955 195.449 716.125 198.993H740.981C740.981 198.993 737.376 194.332 737.376 186.412C737.376 178.493 737.845 78.518 737.845 78.518L763.682 151.89C763.682 151.89 764.457 154.383 764.457 157.13V204.651C764.457 204.651 764.944 214.2 760.84 218.544H785.307C785.307 218.544 781.784 213.817 781.784 203.983C781.784 194.149 781.883 17.6107 781.883 17.6107C781.883 17.6107 781.559 5.63579 785.6 1.48241H760.781C760.781 1.48241 764.498 5.66695 764.498 13.8402V98.1453L737.737 26.4784V13.7778C737.737 13.7778 737.737 4.54959 742.039 1.47351H716.671H716.666Z" fill="url(#paint4_linear_2202_719)"/>
<path d="M408.303 1.46014H360.417C360.417 1.46014 364.201 7.11818 364.201 22.7523V175.675C364.201 175.675 364.516 190.882 360.61 198.601C360.61 198.601 367.873 199.015 371.68 199.015C375.487 199.015 382.037 198.886 388.169 194.933C394.3 190.98 398.882 184.921 404.302 174.464C409.722 164.007 416.241 145.257 419.079 136.202C421.917 127.148 443.988 58.2141 443.988 58.2141C443.988 58.2141 447.665 43.7374 447.665 33.2493C447.665 22.7612 444.313 1.46014 408.303 1.46014ZM424.629 54.4525C418.178 81.9992 400.621 130.335 394.039 150.229C387.457 170.124 381.551 174.62 381.551 174.62V19.2578H406.172C430.793 19.2578 431.081 26.9013 424.629 54.448V54.4525Z" fill="url(#paint5_linear_2202_719)"/>
<path d="M618.191 18.3408C618.191 5.57791 621.795 1.46014 621.795 1.46014H596.895C596.895 1.46014 600.585 5.06152 600.585 18.3408C600.585 18.3408 600.495 169.091 600.495 181.849C600.495 194.608 596.891 198.73 596.891 198.73H621.791C621.791 198.73 618.101 195.129 618.101 181.849C618.101 181.849 618.191 31.0992 618.191 18.3408Z" fill="url(#paint6_linear_2202_719)"/>
<path d="M576.784 34.5982C576.784 34.5982 567.949 16.9296 556.533 16.9296C545.117 16.9296 543.607 27.7872 543.607 31.8337C543.607 35.8802 544.792 49.7159 568.278 85.6941C591.764 121.672 590.471 144.451 590.471 148.921C590.471 153.39 587.993 171.7 581.316 180.536C574.639 189.373 562.57 198.739 546.842 198.739C531.115 198.739 523.613 187.352 521.135 184.583L525.551 164.996C525.551 164.996 529.822 182.028 547.27 182.028C564.719 182.028 572.369 166.06 572.369 148.498C572.369 130.936 562.133 107.2 545.545 82.2886C528.957 57.3816 525.51 43.1186 525.51 32.0474C525.51 20.9761 533.696 1.47351 554.807 1.47351C575.919 1.47351 583.677 15.8612 583.677 15.8612L576.784 34.5937V34.5982Z" fill="url(#paint7_linear_2202_719)"/>
<path d="M845.569 34.5982C845.569 34.5982 836.734 16.9296 825.318 16.9296C813.902 16.9296 812.393 27.7872 812.393 31.8337C812.393 35.8802 813.578 49.7159 837.063 85.6941C860.549 121.672 859.256 144.451 859.256 148.921C859.256 153.39 856.778 171.7 850.101 180.536C843.425 189.373 831.355 198.739 815.627 198.739C799.9 198.739 792.399 187.352 789.921 184.583L794.336 164.996C794.336 164.996 798.607 182.028 816.055 182.028C833.504 182.028 841.154 166.06 841.154 148.498C841.154 130.936 830.918 107.2 814.33 82.2886C797.742 57.3816 794.295 43.1186 794.295 32.0474C794.295 20.9761 802.477 1.47351 823.593 1.47351C844.708 1.47351 852.462 15.8612 852.462 15.8612L845.569 34.5937V34.5982Z" fill="url(#paint8_linear_2202_719)"/>
<path d="M454.918 198.735C459.288 194.314 458.892 183.697 458.892 183.697V16.5557C458.892 6.1032 455.112 1.96318 455.112 1.96318L500.479 1.46014V24.5597C498.186 21.862 495.181 20.3529 492.527 19.5026C489.91 18.6702 487.148 18.3764 484.4 18.5366L476.295 19.0085L476.264 30.6629L515.351 30.703V53.8203C514.256 51.5812 511.364 50.1522 508.579 49.2707C505.714 48.3626 502.714 47.9531 499.704 47.9486L476.264 47.9353V181.026H499.551C509.111 181.026 513.738 175.751 513.738 175.751V198.735H454.913" fill="url(#paint9_linear_2202_719)"/>
<path d="M708.714 1.47351L705.732 18.5055C705.732 18.5055 703.569 17.3213 693.987 17.3213H664.951C664.951 17.3213 645.479 16.8851 645.479 30.1109C645.479 43.3367 645.479 46.0522 651.232 65.2165C656.986 84.3808 686.927 173.503 686.927 173.503V108.575C686.927 108.575 686.67 96.3691 684.418 94.1477H708.313C708.313 94.1477 705.732 97.571 705.732 108.575C705.732 117.537 705.727 161.461 705.727 184.142C705.727 196.197 708.719 198.717 708.719 198.717H681.841C681.841 198.717 676.529 200.03 669.6 177.509C662.667 154.993 625.35 55.5253 625.35 31.9138C625.35 8.30233 643.046 1.47351 662.518 1.47351H708.719H708.714Z" fill="url(#paint10_linear_2202_719)"/>
<defs>
<linearGradient id="paint0_linear_2202_719" x1="81.337" y1="1.46014" x2="81.337" y2="199.011" gradientUnits="userSpaceOnUse">
<stop stop-color="#D9FF1A"/>
<stop offset="1" stop-color="#64FF00"/>
</linearGradient>
<linearGradient id="paint1_linear_2202_719" x1="138.918" y1="1.46014" x2="138.918" y2="164.065" gradientUnits="userSpaceOnUse">
<stop stop-color="#D9FF1A"/>
<stop offset="1" stop-color="#64FF00"/>
</linearGradient>
<linearGradient id="paint2_linear_2202_719" x1="206.37" y1="1.46014" x2="206.37" y2="199.011" gradientUnits="userSpaceOnUse">
<stop stop-color="#D9FF1A"/>
<stop offset="1" stop-color="#64FF00"/>
</linearGradient>
<linearGradient id="paint3_linear_2202_719" x1="286.644" y1="1.46014" x2="286.644" y2="199.011" gradientUnits="userSpaceOnUse">
<stop stop-color="#D9FF1A"/>
<stop offset="1" stop-color="#64FF00"/>
</linearGradient>
<linearGradient id="paint4_linear_2202_719" x1="750.863" y1="1.47351" x2="750.863" y2="218.544" gradientUnits="userSpaceOnUse">
<stop stop-color="#D9FF1A"/>
<stop offset="1" stop-color="#64FF00"/>
</linearGradient>
<linearGradient id="paint5_linear_2202_719" x1="404.041" y1="1.46014" x2="404.041" y2="199.015" gradientUnits="userSpaceOnUse">
<stop stop-color="#D9FF1A"/>
<stop offset="1" stop-color="#64FF00"/>
</linearGradient>
<linearGradient id="paint6_linear_2202_719" x1="609.343" y1="1.46014" x2="609.343" y2="198.73" gradientUnits="userSpaceOnUse">
<stop stop-color="#D9FF1A"/>
<stop offset="1" stop-color="#64FF00"/>
</linearGradient>
<linearGradient id="paint7_linear_2202_719" x1="555.809" y1="1.47351" x2="555.809" y2="198.739" gradientUnits="userSpaceOnUse">
<stop stop-color="#D9FF1A"/>
<stop offset="1" stop-color="#64FF00"/>
</linearGradient>
<linearGradient id="paint8_linear_2202_719" x1="824.595" y1="1.47351" x2="824.595" y2="198.739" gradientUnits="userSpaceOnUse">
<stop stop-color="#D9FF1A"/>
<stop offset="1" stop-color="#64FF00"/>
</linearGradient>
<linearGradient id="paint9_linear_2202_719" x1="485.132" y1="1.46014" x2="485.132" y2="198.735" gradientUnits="userSpaceOnUse">
<stop stop-color="#D9FF1A"/>
<stop offset="1" stop-color="#64FF00"/>
</linearGradient>
<linearGradient id="paint10_linear_2202_719" x1="667.034" y1="1.47351" x2="667.034" y2="198.731" gradientUnits="userSpaceOnUse">
<stop stop-color="#D9FF1A"/>
<stop offset="1" stop-color="#64FF00"/>
</linearGradient>
</defs>
</svg>
