<svg width="668" height="58" viewBox="0 0 668 58" fill="none" xmlns="http://www.w3.org/2000/svg">
<path d="M104.573 33.8498H75.3973L78.4684 30.7851H46.0492L42.9781 33.8498L19.9793 56.8526H127.572L104.573 33.8498Z" fill="black"/>
<path d="M22.9988 24.6557H52.1743L49.1032 27.7204H81.5223L84.5934 24.6557L107.592 1.65286H0L22.9988 24.6557Z" fill="black"/>
<path d="M161.337 18.0096V1.65286H115.701V37.6722L134.801 56.7838H161.337V42.8031H136.164V36.7769H161.337V24.2941H136.164V18.0096H161.337Z" fill="black"/>
<path d="M205.229 1.48067C209.37 1.48067 213.925 2.80642 216.323 4.70036C220.636 7.92006 222.707 12.9648 222.707 20.2307C222.707 29.0805 219.895 35.6921 214.667 38.8257C211.768 40.5647 206.886 41.8044 202.658 41.8044H190.322V56.7665H169.359V1.46344H205.229V1.48067ZM194.705 28.6673C199.432 28.6673 201.571 26.7734 201.571 22.469C201.571 18.5089 199.915 16.9249 195.688 16.9249H190.305V28.6673H194.687H194.705Z" fill="black"/>
<path d="M263.356 1.48067C267.497 1.48067 272.052 2.80642 274.45 4.70036C278.763 7.92006 280.834 12.9648 280.834 20.2307C280.834 29.0805 278.021 35.6921 272.793 38.8257C269.895 40.5647 265.012 41.8044 260.785 41.8044H248.449V56.7665H227.503V1.46344H263.373L263.356 1.48067ZM252.831 28.6673C257.559 28.6673 259.698 26.7734 259.698 22.469C259.698 18.5089 258.042 16.9249 253.815 16.9249H248.432V28.6673H252.814H252.831Z" fill="black"/>
<path d="M334.25 1.65286C342.29 1.65286 348.571 2.80647 352.228 4.95867C358.767 8.91873 361.838 15.9435 361.838 27.1178C361.838 40.0999 357.87 49.6901 350.831 53.8912C347.604 55.7852 342.135 56.7838 335.009 56.7838H306.852V1.65286H334.267H334.25ZM330.851 41.3223C338.391 41.3223 341.203 38.1026 341.203 29.4938C341.203 22.0558 339.133 19.5764 332.749 19.5764H327.78V41.3051H330.851V41.3223Z" fill="black"/>
<path d="M413.512 18.0096H388.34V24.2941H413.512V36.7769H388.34V42.803H413.512V56.7665H367.877V1.63565H413.512V17.9924V18.0096Z" fill="black"/>
<path d="M465.773 19.3353C461.632 18.595 453.764 17.8546 449.296 17.8546C443.171 17.8546 441.014 18.7672 441.014 21.3326C441.014 23.5709 442.584 24.6383 445.983 24.6383H448.554C455.421 24.6383 459.234 25.2237 461.718 26.6184C465.445 28.7706 467.343 33.1439 467.343 39.6005C467.343 52.5826 460.804 57.8684 444.741 57.8684C438.53 57.8684 430.904 57.2141 421.88 55.8023V41.9249C426.677 42.7513 432.56 43.2506 438.116 43.2506C444.655 43.2506 446.156 42.5964 446.156 39.9449C446.156 37.6377 444.913 36.7252 441.428 36.7252C432.733 36.6391 431.249 36.553 428.505 35.7265C422.881 34.1597 419.81 28.2885 419.81 19.1115C419.81 5.56122 426.435 0.602539 444.655 0.602539C451.521 0.602539 456.991 1.18796 465.773 2.99582V19.3526V19.3353Z" fill="black"/>
<path d="M495.173 56.7838H473.64V1.65286H495.173V56.7838Z" fill="black"/>
<path d="M552.316 29.7521V52.7204C545.777 56.1984 538.479 57.8513 529.628 57.8513C520.777 57.8513 513.565 55.6991 509.079 51.4807C503.937 46.6081 501.211 38.4298 501.211 27.927C501.211 8.5916 509.907 0 529.455 0C536.909 0 543.12 1.0675 551.488 3.71902V21.4015C546.933 19.9897 540.221 19.0944 534.752 19.0944C525.884 19.0944 522.83 22.3141 522.83 31.8182C522.83 39.9966 524.9 43.5607 529.628 43.5607C530.456 43.5607 531.198 43.4745 532.699 43.3196V29.7693H552.333L552.316 29.7521Z" fill="black"/>
<path d="M613.842 56.7838H592.31L579.801 31.0778C579.387 30.3375 579.145 29.666 578.645 28.0992H578.145C578.559 31.2328 578.645 32.1453 578.645 33.1439V56.7838H559.01V1.65286H583.027L591.223 18.5951C591.878 19.9208 592.465 21.4015 594.207 26.5324H594.622C594.294 23.6398 594.207 22.5723 594.207 20.8333V1.65286H613.842V56.7838Z" fill="black"/>
<path d="M666.43 19.3353C662.289 18.595 654.422 17.8546 649.953 17.8546C643.828 17.8546 641.671 18.7672 641.671 21.3326C641.671 23.5709 643.241 24.6383 646.64 24.6383H649.211C656.078 24.6383 659.891 25.2237 662.375 26.6184C666.102 28.7706 668 33.1439 668 39.6005C668 52.5826 661.461 57.8684 645.398 57.8684C639.187 57.8684 631.561 57.2141 622.537 55.8023V41.9249C627.334 42.7513 633.217 43.2506 638.773 43.2506C645.312 43.2506 646.813 42.5964 646.813 39.9449C646.813 37.6377 645.571 36.7252 642.085 36.7252C633.39 36.6391 631.906 36.553 629.163 35.7265C623.538 34.1597 620.467 28.2885 620.467 19.1115C620.467 5.56122 627.092 0.602539 645.312 0.602539C652.179 0.602539 657.648 1.18796 666.43 2.99582V19.3526V19.3353Z" fill="black"/>
</svg>
